HIERARCHY
ROOT SpineBase
{
  OFFSET 0.000000 0.000000 0.000000
  CHANNELS 6 Xposition Yposition Zposition Zrotation Xrotation Yrotation
  JOINT SpineMid
  {
    OFFSET 0.000000 33.886234 0.000000
    CHANNELS 3 Zrotation Xrotation Yrotation
    JOINT SpineShoulder
    {
      OFFSET -0.066197 25.080666 -0.985420
      CHANNELS 3 Zrotation Xrotation Yrotation
      JOINT Neck
      {
        OFFSET -0.055932 8.276708 -0.686481
        CHANNELS 3 Zrotation Xrotation Yrotation
        JOINT Head
        {
          OFFSET -6.220056 11.914409 2.988593
          CHANNELS 3 Zrotation Xrotation Yrotation
          End Site
          {
            OFFSET 0 0 0
          }
        }
      }
      JOINT ShoulderLeft
      {
        OFFSET -8.871880 -3.447479 13.513319
        CHANNELS 3 Zrotation Xrotation Yrotation
        JOINT ElbowLeft
        {
          OFFSET 9.838186 -11.878047 -17.024577
          CHANNELS 3 Zrotation Xrotation Yrotation
          JOINT WristLeft
          {
            OFFSET -5.490233 -24.228499 13.821374
            CHANNELS 3 Zrotation Xrotation Yrotation
            JOINT HandLeft
            {
              OFFSET -7.504790 -3.168426 -0.877130
              CHANNELS 3 Zrotation Xrotation Yrotation
              JOINT HandTipLeft
              {
                OFFSET -0.144160 -3.233974 0.049835
                CHANNELS 3 Zrotation Xrotation Yrotation
                End Site
                {
                  OFFSET 0 0 0
                }
              }
              JOINT ThumbLeft
              {
                OFFSET 0.011771 -3.237845 -2.649708
                CHANNELS 3 Zrotation Xrotation Yrotation
                End Site
                {
                  OFFSET 0 0 0
                }
              }
            }
          }
        }
      }
      JOINT ShoulderRight
      {
        OFFSET 7.895469 -4.221652 -11.601546
        CHANNELS 3 Zrotation Xrotation Yrotation
        JOINT ElbowRight
        {
          OFFSET 4.786423 -25.108251 -5.234719
          CHANNELS 3 Zrotation Xrotation Yrotation
          JOINT WristRight
          {
            OFFSET -4.460340 -24.656164 -4.159035
            CHANNELS 3 Zrotation Xrotation Yrotation
            JOINT HandRight
            {
              OFFSET -3.071600 -8.071909 -0.637212
              CHANNELS 3 Zrotation Xrotation Yrotation
              JOINT HandTipRight
              {
                OFFSET -2.650498 -8.101989 -2.157514
                CHANNELS 3 Zrotation Xrotation Yrotation
                End Site
                {
                  OFFSET 0 0 0
                }
              }
              JOINT ThumbRight
              {
                OFFSET 2.856332 -1.254272 -3.725241
                CHANNELS 3 Zrotation Xrotation Yrotation
                End Site
                {
                  OFFSET 0 0 0
                }
              }
            }
          }
        }
      }
    }
  }
  JOINT HipLeft
  {
    OFFSET -4.665787 0.417683 3.378695
    CHANNELS 3 Zrotation Xrotation Yrotation
    JOINT KneeLeft
    {
      OFFSET -3.254194 -30.128709 12.780287
      CHANNELS 3 Zrotation Xrotation Yrotation
      JOINT AnkleLeft
      {
        OFFSET -9.319183 -31.011480 -14.955689
        CHANNELS 3 Zrotation Xrotation Yrotation
        JOINT FootLeft
        {
          OFFSET 12.129788 -2.878248 -7.989752
          CHANNELS 3 Zrotation Xrotation Yrotation
          End Site
          {
            OFFSET 0 0 0
          }
        }
      }
    }
  }
  JOINT HipRight
  {
    OFFSET 4.178528 1.818369 -11.033913
    CHANNELS 3 Zrotation Xrotation Yrotation
    JOINT KneeRight
    {
      OFFSET -0.527877 -36.849007 1.278357
      CHANNELS 3 Zrotation Xrotation Yrotation
      JOINT AnkleRight
      {
        OFFSET 10.361226 -33.286596 -0.089298
        CHANNELS 3 Zrotation Xrotation Yrotation
        JOINT FootRight
        {
          OFFSET -9.049580 -4.299098 -9.358644
          CHANNELS 3 Zrotation Xrotation Yrotation
          End Site
          {
            OFFSET 0 0 0
          }
        }
      }
    }
  }
}
MOTION
Frames: 8
Frame Time: 0.033333
18.411370 77.237320 312.198977 -0.000000 0.000000 58.464588 0.000000 0.000000 -58.464588 -0.000000 0.000000 0.000000 -0.000000 0.000000 0.000000 0.000000 0.000000 0.000000 -0.000000 0.000000 0.000000 -0.000000 0.000000 0.000000 -0.000000 0.000000 0.000000 -0.000000 0.000000 0.000000 0.000000 0.000000 0.000000 0.000000 0.000000 0.000000 -0.000000 0.000000 0.000000 -0.000000 0.000000 0.000000 -0.000000 0.000000 0.000000 -0.000000 0.000000 0.000000 0.000000 0.000000 0.000000 0.000000 0.000000 0.000000 0.000000 0.000000 -58.464588 -0.000000 0.000000 0.000000 -0.000000 0.000000 0.000000 0.000000 0.000000 0.000000 0.000000 0.000000 -58.464588 -0.000000 0.000000 0.000000 -0.000000 0.000000 0.000000 0.000000 0.000000 0.000000
18.381464 77.226414 312.111128 0.057775 0.087728 58.889764 -0.104962 0.004138 -58.889805 -0.000000 0.000000 0.000000 -0.000000 0.000000 0.000000 0.000000 0.000000 0.000000 -0.000000 0.000000 0.000000 -0.000000 0.000000 0.000000 8.515831 -2.465437 4.476575 -9.064366 8.664192 -4.253996 0.000000 0.000000 0.000000 0.000000 0.000000 0.000000 -0.000000 0.000000 0.000000 1.592312 -2.363755 0.193067 0.887673 -0.771617 0.845284 -1.202440 2.647272 -1.165398 0.000000 0.000000 0.000000 0.000000 0.000000 0.000000 -0.104962 0.004138 -58.889805 -0.000000 0.000000 0.000000 0.446157 -0.000021 -1.218546 0.000000 0.000000 0.000000 -0.104962 0.004138 -58.889805 -0.000000 0.000000 0.000000 -0.000000 0.000000 0.000000 0.000000 0.000000 0.000000
18.341590 77.215233 312.015967 0.122813 0.166510 59.220678 -0.205904 0.020306 -59.220820 -0.000000 0.000000 0.000000 -0.000000 0.000000 0.000000 0.000000 0.000000 0.000000 -0.000000 0.000000 0.000000 -0.000000 0.000000 0.000000 17.281551 -4.200186 9.142140 -17.372082 16.765940 -7.833256 0.000000 0.000000 0.000000 0.000000 0.000000 0.000000 -0.000000 0.000000 0.000000 2.663881 -3.927735 0.356302 1.516289 -1.287831 1.412964 -2.384031 4.384137 -1.789388 0.000000 0.000000 0.000000 0.000000 0.000000 0.000000 -0.205904 0.020306 -59.220820 -0.000000 0.000000 0.000000 0.523054 -0.087221 -1.788364 0.000000 0.000000 0.000000 -0.205904 0.020306 -59.220820 -0.000000 0.000000 0.000000 -0.000000 0.000000 0.000000 0.000000 0.000000 0.000000
18.291748 77.203780 311.913492 0.195116 0.236342 59.456756 -0.302704 0.047937 -59.457032 -0.000000 0.000000 0.000000 0.928338 0.076542 -0.192681 0.000000 0.000000 0.000000 -0.000000 0.000000 0.000000 -0.000000 0.000000 0.000000 25.014719 -5.071730 13.157154 -24.339422 23.695050 -10.349676 0.000000 0.000000 0.000000 0.000000 0.000000 0.000000 -0.853579 0.003179 0.178845 4.072215 -4.749885 0.271662 1.893452 -1.607433 1.727973 -3.566901 5.276688 -1.892712 0.000000 0.000000 0.000000 0.000000 0.000000 0.000000 -1.251830 -0.374882 -59.398603 0.119275 1.032172 -0.062211 0.249570 -0.255494 -1.763543 0.000000 0.000000 0.000000 -0.302704 0.047937 -59.457032 -0.000000 0.000000 0.000000 -0.000000 0.000000 0.000000 0.000000 0.000000 0.000000
18.231939 77.192052 311.803705 0.274686 0.297222 59.597813 -0.395361 0.086503 -59.598227 -0.000000 0.000000 0.000000 1.151625 0.195221 -0.187860 0.000000 0.000000 0.000000 -0.000000 0.000000 0.000000 -0.000000 0.000000 0.000000 30.703184 -5.324010 15.849228 -29.613763 28.887268 -11.640107 0.000000 0.000000 0.000000 0.000000 0.000000 0.000000 -0.998282 0.109061 0.230210 4.297444 -4.943873 0.235278 2.010046 -1.741056 1.799781 -4.773088 5.336764 -1.502719 0.000000 0.000000 0.000000 0.000000 0.000000 0.000000 -1.945832 -0.394679 -59.588515 0.370058 1.580682 -0.018987 -0.386818 -0.517971 -1.141396 0.000000 0.000000 0.000000 -0.395361 0.086503 -59.598227 -0.000000 0.000000 0.000000 -0.000000 0.000000 0.000000 0.000000 0.000000 0.000000
18.162163 77.180052 311.686605 0.361525 0.349147 59.644028 -0.483981 0.135514 -59.644557 -0.000000 0.000000 0.000000 1.331312 0.360479 -0.148934 0.000000 0.000000 0.000000 -0.000000 0.000000 0.000000 -0.000000 0.000000 0.000000 33.900379 -5.305910 16.939401 -33.116022 32.056140 -11.759161 0.000000 0.000000 0.000000 0.000000 0.000000 0.000000 -1.071035 0.267431 0.277141 3.984128 -4.488304 0.118763 1.828972 -1.644321 1.616658 -6.011724 4.507326 -0.652594 0.000000 0.000000 0.000000 0.000000 0.000000 0.000000 -2.778761 -0.363803 -59.716552 0.659955 3.047887 -0.156012 -1.359330 -1.729180 0.329987 0.000000 0.000000 0.000000 -0.483981 0.135514 -59.644557 -0.000000 0.000000 0.000000 -0.000000 0.000000 0.000000 0.000000 0.000000 0.000000
18.122096 77.149234 311.548255 0.487425 0.400665 59.561936 -0.592374 0.217271 -59.562517 -0.000000 0.000000 0.000000 1.461508 0.587629 -0.066806 0.000000 0.000000 0.000000 -0.000000 0.000000 0.000000 -0.000000 0.000000 0.000000 37.492446 -5.093022 16.396611 -38.232200 34.588575 -10.074041 0.000000 0.000000 0.000000 0.000000 0.000000 0.000000 -1.215990 -0.087190 0.236496 3.868007 -4.208919 0.185949 2.053559 -1.588500 1.554747 -7.506445 2.506942 0.493440 0.000000 0.000000 0.000000 0.000000 0.000000 0.000000 -3.830584 -0.188486 -59.782812 1.221195 4.655218 -0.276196 -3.637996 -3.257574 4.734506 0.000000 0.000000 0.000000 -0.592374 0.217271 -59.562517 -0.000000 0.000000 0.000000 -0.000000 0.000000 0.000000 0.000000 0.000000 0.000000
17.991914 77.069743 311.409408 0.546308 0.430266 59.343179 0.149834 -0.078315 -59.316524 0.014768 -0.047636 0.033540 0.638333 0.374395 0.040944 0.000000 0.000000 0.000000 -0.705380 -0.470836 -0.064567 -0.000000 0.000000 0.000000 35.655725 -5.060144 15.042945 -36.649094 35.697704 -9.475676 0.000000 0.000000 0.000000 0.000000 0.000000 0.000000 -1.862840 -0.567553 0.147995 2.172596 -2.316507 0.059698 1.625865 -1.951091 1.210213 -9.989189 -2.002876 2.870462 0.000000 0.000000 0.000000 0.000000 0.000000 0.000000 -4.237094 0.056797 -59.691020 1.515624 5.459192 -0.297503 -5.421233 -4.611824 8.076400 0.000000 0.000000 0.000000 -0.648686 0.250570 -59.343812 0.125798 -0.883318 -0.274238 -0.130040 0.882704 0.276209 0.000000 0.000000 0.000000
